<?xml version="1.0" standalone="no"?>
<!DOCTYPE svg PUBLIC "-//W3C//DTD SVG 20010904//EN"
 "http://www.w3.org/TR/2001/REC-SVG-20010904/DTD/svg10.dtd">
<svg version="1.0" xmlns="http://www.w3.org/2000/svg"
 width="225.000000pt" height="225.000000pt" viewBox="0 0 225.000000 225.000000"
 preserveAspectRatio="xMidYMid meet">
<metadata>
Created by potrace 1.16, written by Peter Selinger 2001-2019
</metadata>
<g transform="translate(0.000000,225.000000) scale(0.100000,-0.100000)"
fill="#000000" stroke="none">
<path d="M1532 1478 c-7 -7 -12 -21 -12 -33 0 -41 40 -58 79 -33 15 9 28 8 64
-6 151 -57 229 -216 183 -370 -29 -94 -82 -142 -115 -102 -9 11 -5 25 19 63
36 58 47 129 30 191 -13 51 -75 123 -127 147 -45 22 -137 22 -188 1 -44 -19
-55 -11 -55 37 0 37 -34 70 -63 62 -29 -9 -48 -35 -45 -60 2 -20 -9 -44 -36
-79 -14 -17 -15 -17 -38 4 -102 96 -271 68 -346 -59 -27 -45 -27 -48 -27 -225
l0 -179 28 -4 c45 -6 65 11 62 54 -1 21 0 41 2 45 2 4 22 -2 46 -12 73 -34
184 -17 226 33 19 24 35 21 52 -9 26 -50 113 -119 175 -139 32 -11 63 -26 67
-32 11 -18 62 -16 77 2 15 18 5 64 -16 72 -9 3 -32 0 -53 -7 -33 -11 -44 -10
-84 8 -53 23 -128 96 -147 141 -9 23 -9 38 -1 62 14 41 14 117 0 157 -12 34
-3 59 34 100 25 27 45 28 63 5 10 -15 9 -23 -10 -48 -84 -112 -51 -270 71
-342 38 -22 59 -27 112 -27 41 0 78 6 97 17 38 20 54 8 54 -39 0 -33 28 -64
57 -64 21 0 54 43 49 65 -3 11 1 28 8 37 12 17 16 16 69 -2 132 -47 243 -1
254 104 10 82 -26 117 -167 164 -60 20 -76 46 -44 69 26 19 62 16 120 -11 l50
-23 22 38 23 39 -33 20 c-54 33 -132 46 -186 31 -26 -7 -54 -19 -63 -27 -15
-14 -19 -12 -39 16 -32 45 -105 97 -163 116 -29 9 -59 23 -68 30 -19 17 -51
18 -67 2z m-385 -234 c56 -36 78 -116 48 -174 -66 -128 -245 -84 -245 60 0
109 109 172 197 114z m473 4 c125 -64 96 -242 -43 -265 -46 -7 -116 26 -140
66 -44 75 -3 186 79 211 45 13 57 12 104 -12z"/>
<path d="M206 1350 c-37 -12 -75 -47 -92 -87 -19 -44 -20 -43 29 -43 36 0 47
5 65 30 19 25 29 30 66 30 47 0 76 -22 76 -58 0 -25 -35 -52 -67 -52 -20 0
-23 -5 -23 -35 0 -32 2 -35 30 -35 49 0 86 -51 62 -86 -12 -19 -49 -34 -82
-34 -23 0 -40 9 -60 30 -23 24 -36 30 -70 30 -41 0 -42 -1 -35 -27 17 -70 108
-120 200 -110 71 7 115 33 138 80 24 47 15 92 -25 129 l-30 28 29 24 c23 20
28 32 28 71 0 40 -5 51 -32 75 -50 45 -135 61 -207 40z"/>
<path d="M573 1341 c-49 -23 -73 -63 -73 -120 0 -61 37 -96 134 -129 92 -32
113 -53 77 -83 -33 -27 -70 -24 -135 10 l-56 30 -25 -37 c-24 -35 -24 -38 -8
-51 10 -7 37 -22 60 -32 117 -53 244 -22 273 67 25 75 -12 139 -98 169 -130
46 -150 63 -107 91 29 19 83 13 132 -16 l32 -19 21 33 c11 18 20 38 20 44 0
19 -89 54 -148 58 -43 4 -67 0 -99 -15z"/>
</g>
</svg>
